<svg xmlns="http://www.w3.org/2000/svg" viewBox="0 0 114.3 116.2"><defs><style>.cls-1{fill:#ececec;stroke:#000;stroke-linecap:round;stroke-linejoin:round;stroke-width:0.2px;}</style></defs><title>Algerie</title><g id="Calque_2" data-name="Calque 2"><g id="Calque_1-2" data-name="Calque 1"><path id="DZ" class="cls-1" d="M92.4,1.2l-1,3.3,1,6.1-1.1,5.3-3.2,3.6.6,4.8,4.5,3.9.1,1.5,3.4,2.6,2.6,11.5,1.9,5.7.4,3-.8,5.2.4,3-.6,3.5.6,4L99,70.9l3.4,4.7.2,2.7,2.1,3.6,2.5-1.2,4.5,3,2.5,4L95.4,100l-16,12.6-7.8,2.8-6.2.7-.1-4.1-2.6-1.1-3.5-1.8-1.3-3-18.7-14-18.6-14L.1,62.5l.1-1.2.1-.4.1-7.6,8.9-4.8,5.4-1,4.5-1.7,2.1-3.2,6.4-2.5.3-4.8,3.1-.6,2.5-2.3,7.1-1.1,1-2.5-1.4-1.4-1.9-6.8-.3-3.9-1.9-4.1,5.1-3.5L47.1,8l3.3-2.6,5.1-2,9-1.1,8.8-.5,2.7.9L80.9.2,86.6.1l2.2,1.5,3.6-.4Z"/></g></g></svg>